<?xml version="1.0" encoding="UTF-8"?>
<svg id="Layer_1" xmlns="http://www.w3.org/2000/svg" version="1.1" viewBox="0 0 37.9 62.99">
  <!-- Generator: Adobe Illustrator 29.5.1, SVG Export Plug-In . SVG Version: 2.1.0 Build 141)  -->
  <defs>
    <style>
      .st0 {
        fill: #faee3e;
        fill-rule: evenodd;
      }
    </style>
  </defs>
  <path class="st0" d="M29.94,56.73c-.23,1.05-.84,1.63-1.48,2.07-1.86,1.26-3.87,1.94-6.13,1.09-.61-.23-1.26-.37-1.87-.61-.44-.17-.85-.44-1.45-.77,1.49-1.74,3.2-2.77,5.14-3.29,2.11-.56,3.89.59,5.8,1.5Z"/>
  <path class="st0" d="M11.78,52.28c.4-.26.63-.49.89-.56,2.01-.5,4.06-1.01,6.1-.39,1.02.31,1.99.98,2.8,1.68.87.75.62,1.6-.42,2.14-1.41.72-2.9.87-4.41.44-1.92-.55-3.6-1.51-4.96-3.31Z"/>
  <path class="st0" d="M22.44,43.89c.45.26,1.08.44,1.46.85,1.94,2.15,3.69,4.42,3.63,7.55,0,.25.03.52-.06.75-.22.57-.62.97-1.28.66-.54-.25-1.19-.47-1.54-.9-1.9-2.33-3.15-4.92-2.76-8.05.02-.19.11-.38.2-.56.04-.08.15-.12.36-.3Z"/>
  <path class="st0" d="M1.04,21.56c.5.14.89.14,1.12.33,2.32,1.92,4.41,4.01,4.98,7.15.15.83.08,1.59-.54,2.3-.79.04-1.49-.29-2.06-.76-1.29-1.08-2.43-2.27-2.74-4.03-.23-1.29-.51-2.57-.75-3.85-.06-.32,0-.66,0-1.14Z"/>
  <path class="st0" d="M12.75,44.77c-1.19-1.45-1.16-2.86-1.09-4.16.12-2.16.62-4.28,1.76-6.17.21-.35.64-.8.94-.79.33.02.71.48.93.84.83,1.41,1.01,2.95.54,4.51-.38,1.24-.82,2.48-1.39,3.64-.36.73-1.01,1.3-1.69,2.13Z"/>
  <path class="st0" d="M8.68,2.08c1.33,3.3,2.45,6.6.64,10.14-.24.46-.42,1.06-1.01.94-.35-.07-.72-.51-.91-.88-.35-.66-.67-1.37-.81-2.1-.45-2.38-.4-4.73.77-6.93.24-.46.59-.87.88-1.3.15.05.29.09.44.14Z"/>
  <path class="st0" d="M6.38,22.6c-.93-.09-1.45-.66-1.76-1.35-.37-.82-.68-1.69-.86-2.57-.4-1.96-.17-3.92.24-5.86.05-.24.15-.48.27-.7.06-.12.22-.19.33-.28,3.03,2.78,4.38,7.61,1.78,10.76Z"/>
  <path class="st0" d="M1.37,38.15c.84,0,1.45-.11,2,.02,2.67.63,5.02,1.81,6.66,4.12.23.33.46.67.61,1.04.24.61-.04.93-.69.96-3.64.15-6.01-1.92-8-4.61-.27-.36-.34-.87-.58-1.53Z"/>
  <path class="st0" d="M26.87,62.65c.45-1.51,1.49-1.98,2.42-2.45,2.62-1.33,5.32-2.37,8.62-1.21-.66.73-1.11,1.38-1.7,1.87-1.61,1.36-3.35,2.41-5.62,2.07-1.13-.17-2.29-.17-3.72-.28Z"/>
  <path class="st0" d="M9.86,16.29c.48-3.3,5.08-7.56,7.93-7.43-.34,4.21-4.38,8.06-7.93,7.43Z"/>
  <path class="st0" d="M6.16,45.89c3.54-1.7,8.95.26,9.44,3.34-1.38.62-2.91,1.06-4.31.42-1.9-.87-4.48-.94-5.13-3.76Z"/>
  <path class="st0" d="M36.84,56.48c-4.28.97-8.21-4.22-7.89-7.14,3.42.04,6.73,3.45,7.89,7.14Z"/>
  <path class="st0" d="M18.61,38.71c.26.21.43.28.48.4,1.1,2.6,1.62,5.27.71,8.05-.12.38-.31.75-.54,1.07-.41.57-.87.61-1.4.13-.78-.71-1.23-1.65-1.34-2.64-.14-1.29-.17-2.62,0-3.9.16-1.29,1.03-2.24,2.09-3.11Z"/>
  <path class="st0" d="M8.27,37.61c-1.52.28-2.64-.2-3.55-1-1.05-.92-2-1.97-2.92-3.02-.55-.64-.99-1.39-1.43-2.12-.16-.27-.19-.62-.37-1.23.86.2,1.5.25,2.06.51,1.28.58,2.57,1.17,3.74,1.92,1.72,1.11,2.5,2.78,2.47,4.94Z"/>
  <path class="st0" d="M13.22,25.51c1.16,4.3.23,7.74-3.59,10.11-1.51-2.35.54-8.58,3.59-10.11Z"/>
  <path class="st0" d="M12.99,17.82c1.5,2.82-.63,6.75-4.95,9.16-.55-.55-.64-1.28-.43-1.93.92-2.82,2.18-5.42,4.84-7.05.16-.1.36-.12.54-.17Z"/>
  <path class="st0" d="M18.8,0c1.11,3.51-1.61,7.18-6.05,8.47-.59-1.23-.24-2.4.5-3.34,1.01-1.29,2.21-2.45,3.39-3.59.59-.57,1.34-.97,2.16-1.54Z"/>
</svg>