<svg version="1.1" id="Layer_1" xmlns="http://www.w3.org/2000/svg" xmlns:xlink="http://www.w3.org/1999/xlink" x="0px" y="0px" viewBox="0 0 512.001 512.001" style="enable-background:new 0 0 512.001 512.001;" xml:space="preserve" width="300" height="300" xmlns:svgjs="http://svgjs.dev/svgjs"><g width="100%" height="100%" transform="matrix(1,0,0,1,0,0)"><g>
	<g>
		<path d="M239.202,0.001c-3.275,0.211-6.537,0.469-9.776,0.802c-22.352,34.966-40.161,70.087-53.386,105.2&#10;&#9;&#9;&#9;c21.121,2.543,42.193,4.08,63.163,4.609V0.001H239.202z" fill="#0c2780" fill-opacity="1" data-original-color="#000000ff" stroke="none" stroke-opacity="1"/>
	</g>
</g><g>
	<g>
		<path d="M147.965,272.8c1.44,33.417,7.178,67.035,17.148,100.709c24.768-3.226,49.491-5.137,74.09-5.727V272.8H147.965z" fill="#0c2780" fill-opacity="1" data-original-color="#000000ff" stroke="none" stroke-opacity="1"/>
	</g>
</g><g>
	<g>
		<path d="M176.04,405.998c13.226,35.112,31.035,70.234,53.386,105.2c3.239,0.334,6.501,0.591,9.776,0.803V401.39&#10;&#9;&#9;&#9;C218.233,401.918,197.161,403.455,176.04,405.998z" fill="#0c2780" fill-opacity="1" data-original-color="#000000ff" stroke="none" stroke-opacity="1"/>
	</g>
</g><g>
	<g>
		<path d="M165.112,138.493c-9.971,33.673-15.708,67.291-17.148,100.709h91.237V144.22&#10;&#9;&#9;&#9;C214.604,143.63,189.881,141.719,165.112,138.493z" fill="#0c2780" fill-opacity="1" data-original-color="#000000ff" stroke="none" stroke-opacity="1"/>
	</g>
</g><g>
	<g>
		<path d="M468.082,111.598c-29.089,9.013-58.385,16.205-87.755,21.516c10.138,35.394,15.943,70.805,17.34,106.088H512&#10;&#9;&#9;&#9;C508.952,192.064,493.186,148.396,468.082,111.598z" fill="#0c2780" fill-opacity="1" data-original-color="#000000ff" stroke="none" stroke-opacity="1"/>
	</g>
</g><g>
	<g>
		<path d="M327.109,9.43c17.469,30.362,31.746,60.863,42.782,91.413c25.336-4.411,50.629-10.297,75.787-17.601&#10;&#9;&#9;&#9;C414.16,48.657,373.309,22.731,327.109,9.43z" fill="#0c2780" fill-opacity="1" data-original-color="#000000ff" stroke="none" stroke-opacity="1"/>
	</g>
</g><g>
	<g>
		<path d="M282.575,0.803c-3.24-0.334-6.501-0.59-9.776-0.802v110.591c21.004-0.555,42.061-2.128,63.117-4.709&#10;&#9;&#9;&#9;C322.696,70.81,304.9,35.729,282.575,0.803z" fill="#0c2780" fill-opacity="1" data-original-color="#000000ff" stroke="none" stroke-opacity="1"/>
	</g>
</g><g>
	<g>
		<path d="M397.667,272.8c-1.397,35.282-7.202,70.694-17.34,106.087c29.37,5.311,58.664,12.503,87.756,21.516&#10;&#9;&#9;&#9;c25.105-36.798,40.87-80.466,43.919-127.604H397.667z" fill="#0c2780" fill-opacity="1" data-original-color="#000000ff" stroke="none" stroke-opacity="1"/>
	</g>
</g><g>
	<g>
		<path d="M142.034,410.955c-25.385,4.339-50.797,10.133-76.144,17.329c31.577,34.823,72.59,60.926,119.002,74.287&#10;&#9;&#9;&#9;C167.384,472.142,153.08,441.573,142.034,410.955z" fill="#0c2780" fill-opacity="1" data-original-color="#000000ff" stroke="none" stroke-opacity="1"/>
	</g>
</g><g>
	<g>
		<path d="M43.522,112.169C18.646,148.848,3.032,192.31,0,239.203h114.333c1.394-35.209,7.177-70.546,17.276-105.865&#10;&#9;&#9;&#9;C102.215,128.116,72.811,121.038,43.522,112.169z" fill="#0c2780" fill-opacity="1" data-original-color="#000000ff" stroke="none" stroke-opacity="1"/>
	</g>
</g><g>
	<g>
		<path d="M369.89,411.159c-11.036,30.55-25.313,61.052-42.782,91.412c46.2-13.3,87.051-39.227,118.569-73.813&#10;&#9;&#9;&#9;C420.52,421.454,395.227,415.569,369.89,411.159z" fill="#0c2780" fill-opacity="1" data-original-color="#000000ff" stroke="none" stroke-opacity="1"/>
	</g>
</g><g>
	<g>
		<path d="M114.333,272.799H0c3.032,46.891,18.645,90.355,43.522,127.033c29.289-8.869,58.693-15.947,88.086-21.168&#10;&#9;&#9;&#9;C121.51,343.344,115.727,308.008,114.333,272.799z" fill="#0c2780" fill-opacity="1" data-original-color="#000000ff" stroke="none" stroke-opacity="1"/>
	</g>
</g><g>
	<g>
		<path d="M346.849,138.356c-24.695,3.27-49.405,5.221-74.051,5.842v95.004h91.237C362.594,205.74,356.844,172.076,346.849,138.356z&#10;&#9;&#9;&#9;" fill="#0c2780" fill-opacity="1" data-original-color="#000000ff" stroke="none" stroke-opacity="1"/>
	</g>
</g><g>
	<g>
		<path d="M272.798,272.8v95.004c24.647,0.62,49.356,2.571,74.05,5.841c9.995-33.72,15.746-67.384,17.188-100.845H272.798z" fill="#0c2780" fill-opacity="1" data-original-color="#000000ff" stroke="none" stroke-opacity="1"/>
	</g>
</g><g>
	<g>
		<path d="M272.798,401.411v110.59c3.275-0.212,6.537-0.469,9.776-0.803c22.327-34.925,40.121-70.006,53.341-105.078&#10;&#9;&#9;&#9;C314.858,403.539,293.801,401.966,272.798,401.411z" fill="#0c2780" fill-opacity="1" data-original-color="#000000ff" stroke="none" stroke-opacity="1"/>
	</g>
</g><g>
	<g>
		<path d="M65.89,83.718c25.347,7.196,50.759,12.99,76.144,17.328c11.046-30.618,25.348-61.187,42.858-91.616&#10;&#9;&#9;&#9;C138.48,22.792,97.467,48.895,65.89,83.718z" fill="#0c2780" fill-opacity="1" data-original-color="#000000ff" stroke="none" stroke-opacity="1"/>
	</g>
</g><g>
</g><g>
</g><g>
</g><g>
</g><g>
</g><g>
</g><g>
</g><g>
</g><g>
</g><g>
</g><g>
</g><g>
</g><g>
</g><g>
</g><g>
</g></g></svg>